<?xml version="1.0" encoding="iso-8859-1"?>
<!-- Generator: Adobe Illustrator 19.0.0, SVG Export Plug-In . SVG Version: 6.00 Build 0)  -->
<svg version="1.1" id="Layer_1" xmlns="http://www.w3.org/2000/svg" xmlns:xlink="http://www.w3.org/1999/xlink" x="0px" y="0px"
	 viewBox="0 0 512.001 512.001" style="enable-background:new 0 0 512.001 512.001;" xml:space="preserve">
<g>
	<g>
		<g>
			<path d="M241.626,146.185H71.051c-5.633,0-10.199,4.567-10.199,10.199v61.293c0,5.632,4.566,10.199,10.199,10.199h170.576
				c5.633,0,10.199-4.567,10.199-10.199v-61.293C251.826,150.752,247.259,146.185,241.626,146.185z M231.427,207.478H81.25v-40.895
				h150.177V207.478z"/>
			<path d="M487.428,446.562h-7.529V40.865c0-13.55-11.024-24.574-24.574-24.574c-9.465,0-17.783,5.434-21.872,13.416h-155.58
				c-4.088-7.982-12.407-13.416-21.872-13.416c-9.465,0-17.783,5.434-21.872,13.416H78.549
				c-4.089-7.982-12.407-13.416-21.872-13.416c-13.55,0-24.574,11.024-24.574,24.574v405.698h-7.529
				C11.024,446.562,0,457.587,0,471.136c0,13.55,11.024,24.573,24.574,24.574h64.205c13.55,0,24.574-11.024,24.574-24.574
				c0-13.55-11.024-24.574-24.574-24.574H81.25v-15.058h150.177v15.058h-7.529c-13.55,0-24.574,11.024-24.574,24.574
				c0,13.55,11.024,24.574,24.574,24.574h64.205c13.55,0,24.574-11.024,24.574-24.574c0-13.55-11.024-24.574-24.574-24.574h-7.529
				V78.854H430.75v367.708h-7.529c-13.55,0-24.573,11.024-24.573,24.574c0,13.55,11.023,24.574,24.573,24.574h64.206
				c13.55,0,24.574-11.023,24.574-24.573C512.001,457.587,500.978,446.562,487.428,446.562z M487.427,475.312h-64.206
				c-2.302,0-4.174-1.874-4.174-4.176s1.873-4.176,4.174-4.176h17.729c5.633,0,10.199-4.567,10.199-10.199V68.654
				c0-5.632-4.566-10.199-10.199-10.199H270.375c-5.633,0-10.199,4.567-10.199,10.199v388.107c0,5.632,4.566,10.199,10.199,10.199
				h17.728c2.303,0,4.176,1.874,4.176,4.176s-1.874,4.176-4.176,4.176h-64.205c-2.303,0-4.176-1.874-4.176-4.176
				s1.874-4.176,4.176-4.176h17.728c5.633,0,10.199-4.567,10.199-10.199v-35.456c0-5.632-4.566-10.199-10.199-10.199H71.051
				c-5.633,0-10.199,4.567-10.199,10.199v35.456c0,5.632,4.566,10.199,10.199,10.199h17.728c2.303,0,4.176,1.874,4.176,4.176
				s-1.874,4.176-4.176,4.176H24.574c-2.303,0-4.176-1.874-4.176-4.176s1.874-4.176,4.176-4.176h17.727
				c5.633,0,10.199-4.567,10.199-10.199V40.865c0-2.302,1.874-4.176,4.176-4.176c2.183,0,4.004,1.707,4.149,3.889
				c0.354,5.361,4.805,9.527,10.177,9.527h170.672c5.372,0,9.823-4.166,10.177-9.527c0.145-2.181,1.967-3.889,4.149-3.889
				s4.004,1.708,4.149,3.89c0.355,5.36,4.805,9.526,10.177,9.526h170.672c5.372,0,9.823-4.166,10.177-9.527
				c0.145-2.181,1.966-3.889,4.149-3.889c2.303,0,4.176,1.874,4.176,4.176v415.897c0,5.632,4.566,10.199,10.199,10.199h17.728
				c2.302,0,4.174,1.874,4.174,4.176S489.729,475.312,487.427,475.312z"/>
			<path d="M241.626,322.402H71.051c-5.633,0-10.199,4.567-10.199,10.199v61.294c0,5.632,4.566,10.199,10.199,10.199h170.576
				c5.633,0,10.199-4.566,10.199-10.199v-61.294C251.826,326.97,247.259,322.402,241.626,322.402z M231.427,383.697H81.25v-40.896
				h150.177V383.697z"/>
			<path d="M241.626,58.075H71.051c-5.633,0-10.199,4.567-10.199,10.199v61.294c0,5.632,4.566,10.199,10.199,10.199h170.576
				c5.633,0,10.199-4.566,10.199-10.199V68.274C251.826,62.642,247.259,58.075,241.626,58.075z M231.427,119.369H81.25V78.473
				h150.177V119.369z"/>
			<path d="M241.626,234.292H71.051c-5.633,0-10.199,4.567-10.199,10.199v61.294c0,5.632,4.566,10.199,10.199,10.199h170.576
				c5.633,0,10.199-4.566,10.199-10.199v-61.294C251.826,238.86,247.259,234.292,241.626,234.292z M231.427,295.587H81.25v-40.896
				h150.177V295.587z"/>
		</g>
	</g>
</g>
<g>
</g>
<g>
</g>
<g>
</g>
<g>
</g>
<g>
</g>
<g>
</g>
<g>
</g>
<g>
</g>
<g>
</g>
<g>
</g>
<g>
</g>
<g>
</g>
<g>
</g>
<g>
</g>
<g>
</g>
</svg>
